<svg width="124" height="39" viewBox="0 0 124 39" fill="none" xmlns="http://www.w3.org/2000/svg">
<path d="M17.4816 0.742477C17.332 1.13646 16.933 1.38271 16.6338 1.23496C16.2847 1.13646 15.1875 1.43195 14.1402 1.97369C12.8435 2.61391 11.6965 2.86015 10.4996 2.66316C9.15302 2.46617 8.80392 2.56466 8.80392 3.15564C8.80392 4.92858 10.0507 6.89851 12.9931 9.65642C17.8307 14.2365 18.6286 16.9944 17.0327 23.4459C16.6338 25.0711 16.3345 28.1738 16.2847 30.3407C16.2847 35.6595 16.1351 35.758 8.45482 36.2012C2.12111 36.546 -0.771445 37.0877 0.176117 37.6294C3.0188 39.3531 52.0925 39.2546 53.838 37.531C54.3368 37.0385 51.8432 36.5952 47.5542 36.3982C44.7614 36.2505 44.7115 36.2505 44.9609 34.97C45.2601 33.6896 43.5146 24.1354 42.7665 22.8057C42.4673 22.3132 42.2678 22.5595 42.0185 23.7907C41.8688 24.7264 40.9213 26.7948 39.9737 28.3215L38.2282 31.1779L39.475 32.6554C40.1732 33.4433 40.7218 34.2806 40.7218 34.4776C40.7218 35.3148 38.2781 36.0535 35.7845 35.9058L33.1912 35.758L36.6822 31.2272C44.4622 21.082 43.365 17.1914 30.1989 8.67145C26.5084 6.25829 23.0672 3.59888 21.97 2.31842C20.025 0.00375366 18.0302 -0.685722 17.4816 0.742477ZM28.7526 9.21318C32.3434 11.5771 34.1886 13.1038 34.7372 14.1873C35.5351 15.8617 36.5824 16.4527 36.0339 14.926C35.7845 14.2365 35.8842 14.2858 36.4827 15.0737C39.7244 19.1613 37.4303 25.3174 32.1937 26.6963C30.5978 27.0903 30.6477 27.0903 32.6925 26.9426C36.5326 26.5486 39.1758 22.8057 38.5274 18.6689C38.328 17.4376 38.3778 16.8467 38.6771 17.0437C39.5747 17.5361 40.3727 21.082 40.0236 22.855C39.6246 25.0711 37.2807 28.1738 35.0364 29.5527C33.3907 30.5869 33.1912 30.5869 31.7948 29.8482C30.2986 29.1095 29.2513 27.7798 29.2513 26.6471C29.2513 26.3516 29.5007 26.2531 29.7999 26.4008C30.0991 26.5978 30.0493 26.3023 29.6503 25.7114C28.8523 24.4802 28.0544 24.6279 27.8549 26.0561C27.7053 26.9426 27.4559 27.0903 26.3588 26.8441C24.314 26.3516 24.2143 26.2038 24.5634 24.3817C24.7629 23.2982 24.6631 22.7072 24.314 22.7072C24.0148 22.7072 23.7654 22.9042 23.7654 23.1505C23.7654 23.3967 23.0173 24.0369 22.1695 24.6279C21.2718 25.1696 20.7731 25.6621 21.0225 25.6621C21.3217 25.6621 21.8204 25.4159 22.1695 25.0711C22.6184 24.6279 22.768 24.6279 22.768 25.0711C22.768 25.4159 21.97 26.5486 20.9227 27.632C18.7783 30.0452 18.2795 29.6512 18.3294 25.6621C18.3294 23.6429 18.4292 23.1997 18.7783 23.9877C19.5263 25.8591 20.1747 25.7114 19.5762 23.7907C18.9279 21.9192 18.878 12.1188 19.4765 11.5279C19.6261 11.3801 19.7757 10.7891 19.7757 10.2966C19.7757 9.50867 19.5263 9.41018 18.0801 9.65642C16.9829 9.90266 15.8857 9.70567 14.8883 9.21318C12.644 8.08047 12.5942 7.63724 14.6888 7.78498C16.2348 7.88348 16.3345 7.83423 15.2872 7.48949C11.2975 6.20904 9.05328 3.99287 11.6965 3.99287C12.4446 3.99287 13.4919 3.64813 13.9906 3.25414C14.5392 2.86015 15.6862 2.51542 16.5839 2.51542C17.5813 2.51542 18.2795 2.21992 18.479 1.72744C18.7284 1.13646 19.3268 1.53045 21.1721 3.40189C22.4688 4.73159 25.9099 7.34175 28.7526 9.21318ZM18.9279 11.4786C18.6286 11.8233 18.3294 12.4143 18.1798 12.8083C18.0302 13.3008 17.8806 13.3008 17.332 12.6606C16.7834 11.9711 16.8333 11.8233 17.8307 11.4294C19.4266 10.7891 19.4765 10.7891 18.9279 11.4786ZM26.6081 28.1738C28.4534 28.6663 28.8025 28.9617 29.2513 30.5377C29.9495 33.0001 29.8498 34.5268 29.0518 34.5268C28.7027 34.5268 28.1043 34.8715 27.7552 35.2655C27.0071 36.152 25.2616 36.2505 25.2616 35.364C25.2616 35.0685 25.8102 33.5911 26.5084 32.1629C27.6055 29.799 27.6554 29.5527 26.8575 29.3065C26.4086 29.1587 25.5109 28.814 24.9125 28.617C23.4662 28.026 22.2693 29.8482 22.2693 32.6554C22.2693 34.2806 22.0199 34.9208 21.222 35.4133C19.6759 36.3982 19.4765 35.8073 20.424 32.9016C21.4713 29.602 23.1171 26.9918 23.915 27.3366C24.2641 27.4843 25.4611 27.829 26.6081 28.1738ZM42.7167 31.4242C43.1655 34.3298 42.7665 34.8223 41.6694 32.7046C40.7218 30.8332 40.8215 28.9125 41.8688 29.2572C42.2179 29.3557 42.5671 30.3407 42.7167 31.4242ZM33.7398 31.5719C33.7398 31.8674 33.3907 32.6554 32.9418 33.2956C32.493 33.9851 32.2436 35.0685 32.3434 35.758C32.5927 36.8415 32.4431 36.9892 31.1963 36.9892C29.5007 36.9892 29.4508 36.7922 30.7475 35.167C31.296 34.4776 31.7449 33.2464 31.7449 32.5076C31.7449 31.4242 31.9943 31.0794 32.7423 31.0794C33.2909 31.0794 33.7398 31.3257 33.7398 31.5719ZM43.2154 36.0535C43.2154 36.2997 42.8663 36.4967 42.4673 36.4967C41.7192 36.4967 41.4699 35.9058 42.0185 35.364C42.4174 34.97 43.2154 35.4133 43.2154 36.0535ZM18.479 36.2505C18.6785 36.743 18.4292 36.9892 17.7808 36.9892C16.7834 36.9892 16.4842 36.4475 17.1325 35.8565C17.6312 35.3148 18.1299 35.4625 18.479 36.2505Z" fill="#F2F2F2"/>
<path d="M28.7514 12.1184C29.699 12.8079 30.5468 13.3496 30.6964 13.3496C31.1952 13.3496 28.0532 10.9364 27.5545 10.8872C27.2553 10.8872 27.8039 11.4289 28.7514 12.1184Z" fill="#F2F2F2"/>
<path d="M67.6518 5.47071C66.8539 6.30793 65.9562 7.78538 65.6071 8.77035L65.0086 10.5433L64.3104 9.21358C63.9114 8.47486 63.712 7.53914 63.8616 7.14515C64.0611 6.65267 63.712 6.45568 62.4652 6.45568H60.7695L61.6173 8.27786C62.0662 9.31208 62.8143 10.9373 63.2631 11.873L64.0611 13.5967L65.4076 10.6418C67.1032 6.84966 67.9511 5.96319 69.7464 5.96319C70.8935 5.96319 71.1927 5.7662 71.0431 5.12597C70.7439 3.64852 69.1978 3.84552 67.6518 5.47071Z" fill="#F2F2F2"/>
<path d="M50.1964 7.44062C49.4982 8.77032 50.2462 10.1 52.1912 10.888C52.9892 11.2327 53.6874 11.676 53.6874 11.9222C53.6874 12.7102 51.1938 12.3654 50.8447 11.5775C50.5953 10.8388 50.4956 10.888 50.0467 11.6267C49.0992 13.3504 53.039 14.0891 54.4853 12.4147C55.2833 11.5282 55.3331 11.5282 56.2308 12.4147C57.4278 13.5967 58.7743 13.5967 60.2206 12.3654C61.5172 11.3312 61.1681 11.085 59.6221 11.9222C58.874 12.267 58.4252 12.267 57.8766 11.8237C56.5799 10.7895 57.0787 9.95228 59.1733 9.60754C61.4175 9.26281 61.4674 9.11506 60.3702 7.53912C58.874 5.37219 55.1835 6.55415 55.1835 9.21356V10.3955L53.3383 9.26281C51.1938 7.9331 50.6951 6.94814 52.0915 6.94814C52.6899 6.94814 53.2385 7.39137 53.4879 8.0316C53.7871 9.01657 53.837 9.01657 54.2858 8.17934C54.9342 7.14513 54.0863 6.45565 52.0915 6.45565C51.2437 6.45565 50.5455 6.80039 50.1964 7.44062ZM59.0236 7.73611C59.1733 8.17934 59.0236 8.72108 58.6247 8.96732C57.5774 9.60754 57.1784 9.50905 57.1784 8.52408C57.1784 6.89889 58.4751 6.35716 59.0236 7.73611Z" fill="#F2F2F2"/>
<path d="M68.7992 6.84883C68.4999 7.04583 68.0012 7.8338 67.702 8.57253C66.6048 11.3797 69.248 14.1376 71.8912 12.9556C72.5894 12.6601 73.138 12.1677 73.138 11.8722C73.138 11.5274 72.7889 11.5274 72.0408 11.9214C71.0932 12.4139 70.8439 12.3154 69.9961 11.3304L68.9986 10.1485L71.3426 9.70524C72.9884 9.3605 73.5868 9.06501 73.4372 8.57253C73.2876 8.17854 73.3873 8.03079 73.6367 8.17854C74.285 8.57253 74.285 11.7244 73.6367 12.1184C72.6393 12.7586 73.1879 13.3496 74.7838 13.3496H76.3796V10.247C76.3796 7.88305 76.5293 7.19357 77.1277 7.19357C77.6763 7.19357 77.9755 7.9323 78.1252 9.80373C78.3745 12.1677 79.0727 13.3004 80.2198 13.3496C80.4193 13.3496 81.3169 12.7094 82.2146 11.9214C83.1622 11.1334 84.5586 10.3947 85.3565 10.2962C87.0522 10.1485 87.4512 8.81877 85.9051 8.52328C85.3565 8.37553 84.2095 9.11426 82.9128 10.3455C81.7658 11.4782 80.6686 12.2169 80.4691 12.0692C80.2696 11.8722 80.12 10.7887 80.12 9.65599C80.12 8.42478 79.8208 7.29207 79.4218 6.99658C78.7236 6.4056 76.0305 6.5041 73.8362 7.19357C73.2377 7.39057 72.5894 7.29207 72.4398 6.99658C72.0408 6.35635 69.6968 6.3071 68.7992 6.84883ZM71.5421 8.03079C71.6418 8.47403 71.2429 8.91726 70.5447 9.06501C69.0984 9.45899 68.9488 9.262 69.647 7.9323C70.2454 6.79959 71.2927 6.84883 71.5421 8.03079Z" fill="#F2F2F2"/>
<path d="M85.1073 13.8924C84.1597 14.3849 83.1124 14.8281 82.7633 14.8281C81.9155 14.8281 81.9654 15.2221 82.8631 16.1578C83.5114 16.7488 83.6112 18.0785 83.5114 23.3481L83.3618 29.8489L82.0153 29.9966L80.6189 30.1444V24.4808C80.6189 19.1127 80.6687 18.768 81.6163 18.768C82.1649 18.768 82.6137 18.5218 82.6137 18.2755C82.6137 17.98 82.1649 17.783 81.6163 17.783C80.8183 17.783 80.6189 17.4383 80.6189 16.1578C80.6189 15.2221 80.4692 14.3849 80.3196 14.1879C80.1201 14.0402 78.9731 14.9266 77.7263 16.1578C76.4795 17.4383 75.7314 18.571 76.0307 18.6695C76.4296 18.768 76.6291 20.4917 76.6291 23.8898C76.6291 31.0308 76.679 31.0801 83.7109 31.0801C89.0472 31.0801 89.1968 31.0308 88.4487 30.1936C87.2019 28.8147 87.2518 21.7229 88.4986 20.5902C89.6456 19.556 90.8924 19.5067 91.2914 20.5409C91.441 20.9842 91.5906 23.0526 91.5906 25.1703C91.5906 27.9774 91.3911 29.2579 90.8426 29.7996C90.4436 30.1936 90.0945 30.6368 90.0945 30.7846C90.0945 30.9323 91.5408 31.0801 93.3361 31.0801C96.7773 31.0801 96.9768 30.9323 95.8297 29.4056C95.331 28.7162 95.0816 27.1895 95.0816 24.6286C95.0816 21.0827 94.9819 20.7379 93.785 19.8022C92.239 18.6203 89.496 18.4233 88.5983 19.5067C87.551 20.7872 87.3515 20.344 87.5011 16.9951C87.6009 15.2221 87.5011 13.5477 87.2518 13.3507C87.0523 13.1537 86.0549 13.3999 85.1073 13.8924Z" fill="#F2F2F2"/>
<path d="M118.521 15.3693C117.573 15.911 115.928 17.29 114.93 18.4227C113.584 19.9002 113.035 20.2449 113.035 19.6047C113.035 19.1614 112.836 18.7675 112.536 18.7675C112.187 18.7675 109.993 19.6539 108.148 20.5404C108.098 20.5404 108.347 21.2299 108.796 22.0178C109.743 23.84 109.743 27.4844 108.796 29.3066C108.397 30.0453 108.048 30.784 108.048 30.8825C108.048 30.981 111.09 31.0303 114.83 31.0303C121.314 31.0303 121.663 30.981 122.81 29.8483C125.054 27.6321 124.256 26.1054 119.269 23.0028C116.277 21.1806 115.977 19.9987 118.521 19.9987C120.067 19.9987 120.316 20.1957 120.765 21.5746C121.314 23.5445 121.862 23.643 122.511 21.9193C123.259 20.0972 123.159 19.9002 121.463 19.3092C117.673 18.0287 114.531 19.4569 114.531 22.4611C114.531 24.431 115.329 25.2682 118.621 26.9427C120.316 27.7799 121.014 28.4201 120.915 29.0111C120.566 30.784 116.825 30.2915 115.928 28.3709C115.18 26.6964 114.531 26.8442 114.531 28.6664C114.531 29.6513 114.332 30.0946 113.933 29.9961C112.885 29.6513 112.786 22.4118 113.783 20.8851C115.03 19.0137 117.523 17.7825 120.067 17.7825C123.159 17.7825 124.306 16.6498 122.71 15.1231C121.663 14.0889 120.616 14.1381 118.521 15.3693Z" fill="#F2F2F2"/>
<path d="M51.8935 19.9001C50.2976 21.2791 50.5469 22.7073 52.3423 22.7073C53.7387 22.7073 54.6863 21.8701 54.6863 20.6388C54.6863 19.5554 55.983 19.4569 56.3819 20.5403C56.9804 22.1163 56.6812 23.1998 55.6837 23.1998C53.7387 23.1998 50.8462 25.0712 50.2477 26.6471C49.6493 28.4201 50.1978 30.2915 51.4446 30.784C52.6914 31.2272 54.6364 31.1287 55.7336 30.587C56.5814 30.0945 56.6812 30.2423 56.6812 31.5227C56.6812 34.7731 58.7758 37.7773 61.419 38.2697C64.8601 38.91 68.6005 35.8073 66.3563 34.1821C65.5084 33.5911 65.309 33.6404 64.5609 34.5761C64.0622 35.1671 63.6632 35.9058 63.6632 36.2506C63.6632 37.1863 61.7182 37.728 60.9701 37.0385C60.621 36.6445 60.3717 33.8866 60.2719 29.4543C60.222 25.6129 60.0226 21.9685 59.9228 21.3776C59.3244 18.8167 54.2374 17.9302 51.8935 19.9001ZM56.1824 29.3065C55.3845 30.0945 53.9881 29.0111 53.7886 27.4844C53.6889 26.5486 54.038 25.7607 55.0354 24.825L56.4318 23.446L56.5814 26.1054C56.6812 27.5829 56.4817 29.0111 56.1824 29.3065Z" fill="#F2F2F2"/>
<path d="M63.2648 19.8022C61.3696 20.6887 61.22 20.8857 61.9182 21.5259C62.4169 22.0184 62.6663 23.2004 62.6663 24.9733C62.6663 27.8789 63.6139 30.2921 64.9105 30.7846C66.4067 31.3263 68.8005 31.0801 69.7481 30.2429C70.5959 29.5041 70.6458 29.5041 70.6458 30.2429C70.6458 30.9323 71.1445 31.0801 73.0895 31.0801C75.7826 31.0801 76.5805 30.5876 75.3836 29.6026C74.7851 29.1101 74.6355 27.7804 74.6355 23.8406C74.6355 19.1127 74.5358 18.6695 73.7877 18.9158C68.8005 20.5409 68.601 20.6887 69.8977 21.7229C71.0946 22.7079 70.945 28.2237 69.6982 29.3071C69.1496 29.7996 68.3018 30.0951 67.8031 29.9966C67.0051 29.8489 66.9054 29.2086 66.7558 24.2838C66.6062 18.177 66.7059 18.2755 63.2648 19.8022Z" fill="#F2F2F2"/>
<path d="M99.1206 19.4575C97.425 20.3932 96.627 22.1169 96.5771 24.7763C96.5771 29.0609 98.4723 31.0801 102.512 31.0801C104.058 31.0801 104.956 30.7353 106.153 29.6519C107.699 28.2729 107.798 28.0267 107.798 24.924C107.798 21.8214 107.699 21.5752 106.153 20.1962C104.906 19.0635 104.058 18.768 102.412 18.768C101.265 18.8173 99.7689 19.1127 99.1206 19.4575ZM104.008 21.2797C104.606 23.0034 104.656 26.6477 104.108 28.6177C103.858 29.5041 103.36 29.8981 102.412 29.9966C100.766 30.1936 100.068 28.7654 100.068 25.2195C100.068 21.7722 100.916 19.753 102.312 19.753C103.16 19.753 103.609 20.147 104.008 21.2797Z" fill="#F2F2F2"/>
</svg>
