<svg width="100" height="32" viewBox="0 0 100 32" fill="none" xmlns="http://www.w3.org/2000/svg">
<path d="M14.3601 1.06801C14.2401 1.38401 13.9201 1.58151 13.6801 1.46301C13.4001 1.38401 12.5201 1.62101 11.6801 2.05551C10.6401 2.56901 9.72012 2.76651 8.76012 2.60851C7.68012 2.45051 7.40012 2.52951 7.40012 3.00351C7.40012 4.42551 8.40012 6.00551 10.7601 8.21751C14.6401 11.891 15.2801 14.103 14.0001 19.2775C13.6801 20.581 13.4401 23.0695 13.4001 24.8075C13.4001 29.0735 13.2801 29.1525 7.12012 29.508C2.04012 29.7845 -0.279877 30.219 0.480123 30.6535C2.76012 32.036 42.1201 31.957 43.5201 30.5745C43.9201 30.1795 41.9201 29.824 38.4801 29.666C36.2401 29.5475 36.2001 29.5475 36.4001 28.5205C36.6401 27.4935 35.2401 19.8305 34.6401 18.764C34.4001 18.369 34.2401 18.5665 34.0401 19.554C33.9201 20.3045 33.1601 21.9635 32.4001 23.188L31.0001 25.479L32.0001 26.664C32.5601 27.296 33.0001 27.9675 33.0001 28.1255C33.0001 28.797 31.0401 29.3895 29.0401 29.271L26.9601 29.1525L29.7601 25.5185C36.0001 17.3815 35.1201 14.261 24.5601 7.42751C21.6001 5.49201 18.8401 3.35901 17.9601 2.33201C16.4001 0.475512 14.8001 -0.0774899 14.3601 1.06801ZM23.4001 7.86201C26.2801 9.75801 27.7601 10.9825 28.2001 11.8515C28.8401 13.1945 29.6801 13.6685 29.2401 12.444C29.0401 11.891 29.1201 11.9305 29.6001 12.5625C32.2001 15.841 30.3601 20.7785 26.1601 21.8845C24.8801 22.2005 24.9201 22.2005 26.5601 22.082C29.6401 21.766 31.7601 18.764 31.2401 15.446C31.0801 14.4585 31.1201 13.9845 31.3601 14.1425C32.0801 14.5375 32.7201 17.3815 32.4401 18.8035C32.1201 20.581 30.2401 23.0695 28.4401 24.1755C27.1201 25.005 26.9601 25.005 25.8401 24.4125C24.6401 23.82 23.8001 22.7535 23.8001 21.845C23.8001 21.608 24.0001 21.529 24.2401 21.6475C24.4801 21.8055 24.4401 21.5685 24.1201 21.0945C23.4801 20.107 22.8401 20.2255 22.6801 21.371C22.5601 22.082 22.3601 22.2005 21.4801 22.003C19.8401 21.608 19.7601 21.4895 20.0401 20.028C20.2001 19.159 20.1201 18.685 19.8401 18.685C19.6001 18.685 19.4001 18.843 19.4001 19.0405C19.4001 19.238 18.8001 19.7515 18.1201 20.2255C17.4001 20.66 17.0001 21.055 17.2001 21.055C17.4401 21.055 17.8401 20.8575 18.1201 20.581C18.4801 20.2255 18.6001 20.2255 18.6001 20.581C18.6001 20.8575 17.9601 21.766 17.1201 22.635C15.4001 24.5705 15.0001 24.2545 15.0401 21.055C15.0401 19.4355 15.1201 19.08 15.4001 19.712C16.0001 21.213 16.5201 21.0945 16.0401 19.554C15.5201 18.053 15.4801 10.1925 15.9601 9.71851C16.0801 9.60001 16.2001 9.12601 16.2001 8.73101C16.2001 8.09901 16.0001 8.02001 14.8401 8.21751C13.9601 8.41501 13.0801 8.25701 12.2801 7.86201C10.4801 6.95351 10.4401 6.59801 12.1201 6.71651C13.3601 6.79551 13.4401 6.75601 12.6001 6.47951C9.40012 5.45251 7.60012 3.67501 9.72012 3.67501C10.3201 3.67501 11.1601 3.39851 11.5601 3.08251C12.0001 2.76651 12.9201 2.49001 13.6401 2.49001C14.4401 2.49001 15.0001 2.25301 15.1601 1.85801C15.3601 1.38401 15.8401 1.70001 17.3201 3.20101C18.3601 4.26751 21.1201 6.36101 23.4001 7.86201ZM15.5201 9.67901C15.2801 9.95551 15.0401 10.4295 14.9201 10.7455C14.8001 11.1405 14.6801 11.1405 14.2401 10.627C13.8001 10.074 13.8401 9.95551 14.6401 9.63951C15.9201 9.12601 15.9601 9.12601 15.5201 9.67901ZM21.6801 23.0695C23.1601 23.4645 23.4401 23.7015 23.8001 24.9655C24.3601 26.9405 24.2801 28.165 23.6401 28.165C23.3601 28.165 22.8801 28.4415 22.6001 28.7575C22.0001 29.4685 20.6001 29.5475 20.6001 28.8365C20.6001 28.5995 21.0401 27.4145 21.6001 26.269C22.4801 24.373 22.5201 24.1755 21.8801 23.978C21.5201 23.8595 20.8001 23.583 20.3201 23.425C19.1601 22.951 18.2001 24.4125 18.2001 26.664C18.2001 27.9675 18.0001 28.481 17.3601 28.876C16.1201 29.666 15.9601 29.192 16.7201 26.8615C17.5601 24.215 18.8801 22.1215 19.5201 22.398C19.8001 22.5165 20.7601 22.793 21.6801 23.0695ZM34.6001 25.6765C34.9601 28.007 34.6401 28.402 33.7601 26.7035C33.0001 25.2025 33.0801 23.662 33.9201 23.9385C34.2001 24.0175 34.4801 24.8075 34.6001 25.6765ZM27.4001 25.795C27.4001 26.032 27.1201 26.664 26.7601 27.1775C26.4001 27.7305 26.2001 28.5995 26.2801 29.1525C26.4801 30.0215 26.3601 30.14 25.3601 30.14C24.0001 30.14 23.9601 29.982 25.0001 28.6785C25.4401 28.1255 25.8001 27.138 25.8001 26.5455C25.8001 25.6765 26.0001 25.4 26.6001 25.4C27.0401 25.4 27.4001 25.5975 27.4001 25.795ZM35.0001 29.3895C35.0001 29.587 34.7201 29.745 34.4001 29.745C33.8001 29.745 33.6001 29.271 34.0401 28.8365C34.3601 28.5205 35.0001 28.876 35.0001 29.3895ZM15.1601 29.5475C15.3201 29.9425 15.1201 30.14 14.6001 30.14C13.8001 30.14 13.5601 29.7055 14.0801 29.2315C14.4801 28.797 14.8801 28.9155 15.1601 29.5475Z" fill="#E12F3B"/>
<path d="M23.3997 10.1925C24.1597 10.7455 24.8397 11.18 24.9597 11.18C25.3597 11.18 22.8397 9.24449 22.4397 9.20499C22.1997 9.20499 22.6397 9.63949 23.3997 10.1925Z" fill="#E12F3B"/>
<path d="M54.6001 4.86C53.9601 5.5315 53.2401 6.7165 52.9601 7.5065L52.4801 8.9285L51.9201 7.862C51.6001 7.2695 51.4401 6.519 51.5601 6.203C51.7201 5.808 51.4401 5.65 50.4401 5.65H49.0801L49.7601 7.1115C50.1201 7.941 50.7201 9.2445 51.0801 9.995L51.7201 11.3775L52.8001 9.0075C54.1601 5.966 54.8401 5.255 56.2801 5.255C57.2001 5.255 57.4401 5.097 57.3201 4.5835C57.0801 3.3985 55.8401 3.5565 54.6001 4.86Z" fill="#E12F3B"/>
<path d="M40.5999 6.44002C40.0399 7.50652 40.6399 8.57302 42.1999 9.20502C42.8399 9.48152 43.3999 9.83702 43.3999 10.0345C43.3999 10.6665 41.3999 10.39 41.1199 9.75802C40.9199 9.16552 40.8399 9.20502 40.4799 9.79752C39.7199 11.18 42.8799 11.7725 44.0399 10.4295C44.6799 9.71852 44.7199 9.71852 45.4399 10.4295C46.3999 11.3775 47.4799 11.3775 48.6399 10.39C49.6799 9.56052 49.3999 9.36302 48.1599 10.0345C47.5599 10.311 47.1999 10.311 46.7599 9.95552C45.7199 9.12602 46.1199 8.45452 47.7999 8.17802C49.5999 7.90152 49.6399 7.78302 48.7599 6.51902C47.5599 4.78102 44.5999 5.72902 44.5999 7.86202V8.81002L43.1199 7.90152C41.3999 6.83502 40.9999 6.04502 42.1199 6.04502C42.5999 6.04502 43.0399 6.40052 43.2399 6.91402C43.4799 7.70402 43.5199 7.70402 43.8799 7.03252C44.3999 6.20302 43.7199 5.65002 42.1199 5.65002C41.4399 5.65002 40.8799 5.92652 40.5999 6.44002ZM47.6799 6.67702C47.7999 7.03252 47.6799 7.46702 47.3599 7.66452C46.5199 8.17802 46.1999 8.09902 46.1999 7.30902C46.1999 6.00552 47.2399 5.57102 47.6799 6.67702Z" fill="#E12F3B"/>
<path d="M55.5198 5.96599C55.2798 6.12399 54.8798 6.75599 54.6398 7.34849C53.7598 9.59999 55.8798 11.812 57.9998 10.864C58.5598 10.627 58.9998 10.232 58.9998 9.99499C58.9998 9.71849 58.7198 9.71849 58.1198 10.0345C57.3598 10.4295 57.1598 10.3505 56.4798 9.56049L55.6798 8.61249L57.5598 8.25699C58.8798 7.98049 59.3598 7.74349 59.2398 7.34849C59.1198 7.03249 59.1998 6.91399 59.3998 7.03249C59.9198 7.34849 59.9198 9.87649 59.3998 10.1925C58.5998 10.706 59.0398 11.18 60.3198 11.18H61.5998V8.69149C61.5998 6.79549 61.7198 6.24249 62.1998 6.24249C62.6398 6.24249 62.8798 6.83499 62.9998 8.33599C63.1998 10.232 63.7598 11.1405 64.6798 11.18C64.8398 11.18 65.5598 10.6665 66.2798 10.0345C67.0398 9.40249 68.1598 8.80999 68.7998 8.73099C70.1598 8.61249 70.4798 7.54599 69.2398 7.30899C68.7998 7.19049 67.8798 7.78299 66.8398 8.77049C65.9198 9.67899 65.0398 10.2715 64.8798 10.153C64.7198 9.99499 64.5998 9.12599 64.5998 8.21749C64.5998 7.22999 64.3598 6.32149 64.0398 6.08449C63.4798 5.61049 61.3198 5.68949 59.5598 6.24249C59.0798 6.40049 58.5598 6.32149 58.4398 6.08449C58.1198 5.57099 56.2398 5.53149 55.5198 5.96599ZM57.7198 6.91399C57.7998 7.26949 57.4798 7.62499 56.9198 7.74349C55.7598 8.05949 55.6398 7.90149 56.1998 6.83499C56.6798 5.92649 57.5198 5.96599 57.7198 6.91399Z" fill="#E12F3B"/>
<path d="M68.6004 11.6145C67.8404 12.0095 67.0004 12.365 66.7204 12.365C66.0404 12.365 66.0804 12.681 66.8004 13.4315C67.3204 13.9055 67.4004 14.972 67.3204 19.1985L67.2004 24.4125L66.1204 24.531L65.0004 24.6495V20.107C65.0004 15.8015 65.0404 15.525 65.8004 15.525C66.2404 15.525 66.6004 15.3275 66.6004 15.13C66.6004 14.893 66.2404 14.735 65.8004 14.735C65.1604 14.735 65.0004 14.4585 65.0004 13.4315C65.0004 12.681 64.8804 12.0095 64.7604 11.8515C64.6004 11.733 63.6804 12.444 62.6804 13.4315C61.6804 14.4585 61.0804 15.367 61.3204 15.446C61.6404 15.525 61.8004 16.9075 61.8004 19.633C61.8004 25.3605 61.8404 25.4 67.4804 25.4C71.7604 25.4 71.8804 25.3605 71.2804 24.689C70.2804 23.583 70.3204 17.895 71.3204 16.9865C72.2404 16.157 73.2404 16.1175 73.5604 16.947C73.6804 17.3025 73.8004 18.9615 73.8004 20.66C73.8004 22.9115 73.6404 23.9385 73.2004 24.373C72.8804 24.689 72.6004 25.0445 72.6004 25.163C72.6004 25.2815 73.7604 25.4 75.2004 25.4C77.9604 25.4 78.1204 25.2815 77.2004 24.057C76.8004 23.504 76.6004 22.2795 76.6004 20.2255C76.6004 17.3815 76.5204 17.105 75.5604 16.3545C74.3204 15.4065 72.1204 15.2485 71.4004 16.1175C70.5604 17.1445 70.4004 16.789 70.5204 14.103C70.6004 12.681 70.5204 11.338 70.3204 11.18C70.1604 11.022 69.3604 11.2195 68.6004 11.6145Z" fill="#E12F3B"/>
<path d="M95.4 12.7995C94.64 13.234 93.32 14.34 92.52 15.2485C91.44 16.4335 91 16.71 91 16.1965C91 15.841 90.84 15.525 90.6 15.525C90.32 15.525 88.56 16.236 87.08 16.947C87.04 16.947 87.24 17.5 87.6 18.132C88.36 19.5935 88.36 22.5165 87.6 23.978C87.28 24.5705 87 25.163 87 25.242C87 25.321 89.44 25.3605 92.44 25.3605C97.64 25.3605 97.92 25.321 98.84 24.4125C100.64 22.635 100 21.4105 96 18.922C93.6 17.4605 93.36 16.5125 95.4 16.5125C96.64 16.5125 96.84 16.6705 97.2 17.7765C97.64 19.3565 98.08 19.4355 98.6 18.053C99.2 16.5915 99.12 16.4335 97.76 15.9595C94.72 14.9325 92.2 16.078 92.2 18.4875C92.2 20.0675 92.84 20.739 95.48 22.082C96.84 22.7535 97.4 23.267 97.32 23.741C97.04 25.163 94.04 24.768 93.32 23.2275C92.72 21.8845 92.2 22.003 92.2 23.4645C92.2 24.2545 92.04 24.61 91.72 24.531C90.88 24.2545 90.8 18.448 91.6 17.2235C92.6 15.7225 94.6 14.735 96.64 14.735C99.12 14.735 100.04 13.8265 98.76 12.602C97.92 11.7725 97.08 11.812 95.4 12.7995Z" fill="#E12F3B"/>
<path d="M41.9601 16.4335C40.6801 17.5395 40.8801 18.685 42.3201 18.685C43.4401 18.685 44.2001 18.0135 44.2001 17.026C44.2001 16.157 45.2401 16.078 45.5601 16.947C46.0401 18.211 45.8001 19.08 45.0001 19.08C43.4401 19.08 41.1201 20.581 40.6401 21.845C40.1601 23.267 40.6001 24.768 41.6001 25.163C42.6001 25.5185 44.1601 25.4395 45.0401 25.005C45.7201 24.61 45.8001 24.7285 45.8001 25.7555C45.8001 28.3625 47.4801 30.772 49.6001 31.167C52.3601 31.6805 55.3601 29.192 53.5601 27.8885C52.8801 27.4145 52.7201 27.454 52.1201 28.2045C51.7201 28.6785 51.4001 29.271 51.4001 29.5475C51.4001 30.298 49.8401 30.7325 49.2401 30.1795C48.9601 29.8635 48.7601 27.6515 48.6801 24.0965C48.6401 21.0155 48.4801 18.0925 48.4001 17.6185C47.9201 15.5645 43.8401 14.8535 41.9601 16.4335ZM45.4001 23.978C44.7601 24.61 43.6401 23.741 43.4801 22.5165C43.4001 21.766 43.6801 21.134 44.4801 20.3835L45.6001 19.2775L45.7201 21.4105C45.8001 22.5955 45.6401 23.741 45.4001 23.978Z" fill="#E12F3B"/>
<path d="M51.0806 16.3545C49.5606 17.0655 49.4406 17.2235 50.0006 17.737C50.4006 18.132 50.6006 19.08 50.6006 20.502C50.6006 22.8325 51.3606 24.768 52.4006 25.163C53.6006 25.5975 55.5206 25.4 56.2806 24.7285C56.9606 24.136 57.0006 24.136 57.0006 24.7285C57.0006 25.2815 57.4006 25.4 58.9606 25.4C61.1206 25.4 61.7606 25.005 60.8006 24.215C60.3206 23.82 60.2006 22.7535 60.2006 19.5935C60.2006 15.8015 60.1206 15.446 59.5206 15.6435C55.5206 16.947 55.3606 17.0655 56.4006 17.895C57.3606 18.685 57.2406 23.109 56.2406 23.978C55.8006 24.373 55.1206 24.61 54.7206 24.531C54.0806 24.4125 54.0006 23.899 53.8806 19.949C53.7606 15.051 53.8406 15.13 51.0806 16.3545Z" fill="#E12F3B"/>
<path d="M79.8398 16.078C78.4798 16.8285 77.8398 18.211 77.7998 20.344C77.7998 23.7805 79.3198 25.4 82.5598 25.4C83.7998 25.4 84.5198 25.1235 85.4798 24.2545C86.7198 23.1485 86.7998 22.951 86.7998 20.4625C86.7998 17.974 86.7198 17.7765 85.4798 16.6705C84.4798 15.762 83.7998 15.525 82.4798 15.525C81.5598 15.5645 80.3598 15.8015 79.8398 16.078ZM83.7598 17.5395C84.2398 18.922 84.2798 21.845 83.8398 23.425C83.6398 24.136 83.2398 24.452 82.4798 24.531C81.1598 24.689 80.5998 23.5435 80.5998 20.6995C80.5998 17.9345 81.2798 16.315 82.3998 16.315C83.0798 16.315 83.4398 16.631 83.7598 17.5395Z" fill="#E12F3B"/>
</svg>
