<svg width="120" height="38" viewBox="0 0 120 38" fill="none" xmlns="http://www.w3.org/2000/svg">
<path d="M16.9177 0.718548C16.7729 1.09982 16.3868 1.33812 16.0972 1.19514C15.7594 1.09982 14.6976 1.38578 13.6841 1.91004C12.4292 2.52961 11.3192 2.76791 10.1609 2.57727C8.85776 2.38663 8.51992 2.48195 8.51992 3.05387C8.51992 4.76962 9.72649 6.676 12.574 9.34494C17.2555 13.7773 18.0277 16.4462 16.4833 22.6896C16.0972 24.2624 15.8076 27.265 15.7594 29.362C15.7594 34.5092 15.6146 34.6045 8.18208 35.0335C2.05269 35.3671 -0.74656 35.8914 0.170436 36.4156C2.92142 38.0837 50.4121 37.9884 52.1013 36.3203C52.584 35.8437 50.1708 35.4148 46.0202 35.2241C43.3175 35.0811 43.2692 35.0811 43.5105 33.842C43.8001 32.6028 42.1109 23.3569 41.387 22.0701C41.0974 21.5935 40.9043 21.8318 40.663 23.0233C40.5182 23.9288 39.6012 25.9305 38.6842 27.4079L36.995 30.1722L38.2016 31.602C38.8773 32.3645 39.4082 33.1748 39.4082 33.3654C39.4082 34.1756 37.0433 34.8905 34.6302 34.7475L32.1205 34.6045L35.4989 30.2199C43.0279 20.402 41.9661 16.6369 29.2247 8.39175C25.6533 6.05643 22.3231 3.48281 21.2613 2.24366C19.3791 0.00365067 17.4486 -0.663582 16.9177 0.718548ZM27.8251 8.916C31.3 11.2037 33.0858 12.6811 33.6166 13.7296C34.3888 15.3501 35.4024 15.922 34.8715 14.4445C34.6302 13.7773 34.7267 13.8249 35.3058 14.5875C38.4429 18.5433 36.2228 24.5007 31.1552 25.8352C29.6108 26.2165 29.6591 26.2165 31.6379 26.0735C35.3541 25.6922 37.912 22.0701 37.2846 18.0667C37.0916 16.8752 37.1398 16.3032 37.4294 16.4939C38.2981 16.9705 39.0704 20.402 38.7325 22.1177C38.3464 24.2624 36.078 27.265 33.9062 28.5994C32.3135 29.6003 32.1205 29.6003 30.7691 28.8854C29.3212 28.1705 28.3077 26.8837 28.3077 25.7875C28.3077 25.5016 28.549 25.4062 28.8386 25.5492C29.1282 25.7399 29.0799 25.4539 28.6938 24.882C27.9216 23.6905 27.1494 23.8335 26.9564 25.2156C26.8116 26.0735 26.5703 26.2165 25.5085 25.9782C23.5297 25.5016 23.4332 25.3586 23.771 23.5952C23.9641 22.5467 23.8675 21.9747 23.5297 21.9747C23.2401 21.9747 22.9988 22.1654 22.9988 22.4037C22.9988 22.642 22.2749 23.2616 21.4544 23.8335C20.5857 24.3577 20.103 24.8343 20.3443 24.8343C20.6339 24.8343 21.1165 24.596 21.4544 24.2624C21.8888 23.8335 22.0335 23.8335 22.0335 24.2624C22.0335 24.596 21.2613 25.6922 20.2478 26.7407C18.1725 29.076 17.6899 28.6948 17.7381 24.8343C17.7381 22.8803 17.8347 22.4513 18.1725 23.2139C18.8964 25.025 19.5239 24.882 18.9447 23.0233C18.3173 21.2122 18.269 11.7279 18.8482 11.156C18.993 11.013 19.1378 10.4411 19.1378 9.96452C19.1378 9.20196 18.8964 9.10664 17.4968 9.34494C16.435 9.58324 15.3733 9.3926 14.408 8.916C12.2362 7.81983 12.1879 7.3909 14.2149 7.53387C15.7111 7.62919 15.8076 7.58154 14.7941 7.24792C10.9331 6.00877 8.76124 3.86408 11.3192 3.86408C12.0431 3.86408 13.0566 3.53046 13.5393 3.14919C14.0702 2.76791 15.1802 2.4343 16.0489 2.4343C17.0142 2.4343 17.6899 2.14833 17.8829 1.67174C18.1242 1.09982 18.7034 1.4811 20.4891 3.29217C21.744 4.57898 25.0741 7.10494 27.8251 8.916ZM18.3173 11.1083C18.0277 11.442 17.7381 12.0139 17.5933 12.3952C17.4486 12.8718 17.3038 12.8718 16.7729 12.2522C16.242 11.5849 16.2903 11.442 17.2555 11.0607C18.7999 10.4411 18.8482 10.4411 18.3173 11.1083ZM25.7498 27.265C27.5355 27.7416 27.8734 28.0275 28.3077 29.5526C28.9834 31.9356 28.8869 33.4131 28.1147 33.4131C27.7768 33.4131 27.1977 33.7467 26.8598 34.128C26.1359 34.9858 24.4467 35.0811 24.4467 34.2233C24.4467 33.9373 24.9776 32.5075 25.6533 31.1254C26.715 28.8377 26.7633 28.5994 25.9911 28.3611C25.5567 28.2182 24.688 27.8845 24.1088 27.6939C22.7092 27.122 21.5509 28.8854 21.5509 31.602C21.5509 33.1748 21.3096 33.7943 20.5374 34.2709C19.0412 35.2241 18.8482 34.6522 19.7652 31.8403C20.7787 28.6471 22.3714 26.1211 23.1436 26.4548C23.4814 26.5977 24.6397 26.9313 25.7498 27.265ZM41.3387 30.4105C41.7731 33.2224 41.387 33.699 40.3252 31.6497C39.4082 29.8386 39.5047 27.9799 40.5182 28.3135C40.8561 28.4088 41.1939 29.362 41.3387 30.4105ZM32.6514 30.5535C32.6514 30.8394 32.3135 31.602 31.8792 32.2216C31.4448 32.8888 31.2035 33.9373 31.3 34.6045C31.5413 35.6531 31.3965 35.796 30.19 35.796C28.549 35.796 28.5008 35.6054 29.7556 34.0326C30.2865 33.3654 30.7209 32.1739 30.7209 31.459C30.7209 30.4105 30.9622 30.0769 31.6861 30.0769C32.217 30.0769 32.6514 30.3152 32.6514 30.5535ZM41.8213 34.8905C41.8213 35.1288 41.4835 35.3194 41.0974 35.3194C40.3735 35.3194 40.1321 34.7475 40.663 34.2233C41.0491 33.842 41.8213 34.2709 41.8213 34.8905ZM17.8829 35.0811C18.076 35.5577 17.8347 35.796 17.2072 35.796C16.242 35.796 15.9524 35.2718 16.5798 34.6999C17.0625 34.1756 17.5451 34.3186 17.8829 35.0811Z" fill="#292929"/>
<path d="M27.8254 11.728C28.7424 12.3952 29.5629 12.9195 29.7077 12.9195C30.1903 12.9195 27.1497 10.5841 26.6671 10.5365C26.3775 10.5365 26.9084 11.0607 27.8254 11.728Z" fill="#292929"/>
<path d="M65.4708 5.29394C64.6986 6.10415 63.8299 7.53394 63.4921 8.48713L62.9129 10.2029L62.2372 8.91607C61.8511 8.20117 61.6581 7.29564 61.8028 6.91436C61.9959 6.43777 61.6581 6.24713 60.4515 6.24713H58.8105L59.631 8.01053C60.0654 9.01139 60.7893 10.5842 61.2237 11.4897L61.9959 13.1578L63.299 10.2982C64.9399 6.62841 65.7604 5.77053 67.4979 5.77053C68.6079 5.77053 68.8975 5.57989 68.7527 4.96032C68.4631 3.53053 66.967 3.72117 65.4708 5.29394Z" fill="#292929"/>
<path d="M48.5784 7.2003C47.9028 8.48711 48.6267 9.77392 50.509 10.5365C51.2812 10.8701 51.9568 11.299 51.9568 11.5373C51.9568 12.2999 49.5437 11.9663 49.2059 11.2037C48.9645 10.4888 48.868 10.5365 48.4337 11.2514C47.5167 12.9195 51.3294 13.6344 52.7291 12.0139C53.5013 11.1561 53.5495 11.1561 54.4183 12.0139C55.5766 13.1578 56.8797 13.1578 58.2793 11.9663C59.5341 10.9654 59.1963 10.7271 57.7001 11.5373C56.9762 11.8709 56.5418 11.8709 56.0109 11.442C54.7561 10.4412 55.2387 9.63094 57.2658 9.29733C59.4376 8.96371 59.4859 8.82073 58.4241 7.29562C56.9762 5.1986 53.4047 6.34243 53.4047 8.91605V10.0599L51.619 8.96371C49.5437 7.6769 49.0611 6.72371 50.4124 6.72371C50.9916 6.72371 51.5225 7.15264 51.7638 7.77222C52.0534 8.72541 52.1016 8.72541 52.536 7.9152C53.1634 6.91434 52.343 6.24711 50.4124 6.24711C49.592 6.24711 48.9163 6.58073 48.5784 7.2003ZM57.121 7.48626C57.2658 7.9152 57.121 8.43945 56.7349 8.67775C55.7214 9.29733 55.3353 9.20201 55.3353 8.24881C55.3353 6.67605 56.5901 6.15179 57.121 7.48626Z" fill="#292929"/>
<path d="M66.5798 6.62839C66.2902 6.81903 65.8076 7.58158 65.518 8.29648C64.4562 11.0131 67.0141 13.682 69.5721 12.5382C70.2477 12.2522 70.7786 11.7756 70.7786 11.4897C70.7786 11.1561 70.4408 11.1561 69.7169 11.5373C68.7999 12.0139 68.5585 11.9186 67.7381 10.9654L66.7728 9.82159L69.0412 9.39265C70.6338 9.05903 71.213 8.77308 71.0682 8.29648C70.9234 7.9152 71.0199 7.77222 71.2613 7.9152C71.8887 8.29648 71.8887 11.3467 71.2613 11.728C70.296 12.3475 70.8269 12.9195 72.3713 12.9195H73.9157V9.91691C73.9157 7.62924 74.0605 6.96201 74.6397 6.96201C75.1706 6.96201 75.4601 7.6769 75.6049 9.48797C75.8462 11.7756 76.5219 12.8718 77.632 12.9195C77.825 12.9195 78.6938 12.2999 79.5625 11.5373C80.4795 10.7748 81.8308 10.0599 82.603 9.96457C84.244 9.82159 84.6301 8.53478 83.1339 8.24882C82.603 8.10584 81.493 8.82074 80.2382 10.0122C79.1281 11.1084 78.0663 11.8233 77.8733 11.6803C77.6802 11.4897 77.5354 10.4412 77.5354 9.34499C77.5354 8.1535 77.2459 7.05733 76.8598 6.77137C76.1841 6.19946 73.5779 6.29478 71.4543 6.96201C70.8752 7.15265 70.2477 7.05733 70.103 6.77137C69.7169 6.1518 67.4485 6.10414 66.5798 6.62839ZM69.2342 7.77222C69.3307 8.20116 68.9446 8.6301 68.269 8.77308C66.8693 9.15435 66.7245 8.96371 67.4002 7.6769C67.9794 6.58073 68.9929 6.62839 69.2342 7.77222Z" fill="#292929"/>
<path d="M82.3632 13.4437C81.4462 13.9203 80.4327 14.3492 80.0948 14.3492C79.2743 14.3492 79.3226 14.7305 80.1913 15.636C80.8188 16.2079 80.9153 17.4948 80.8188 22.5943L80.674 28.8854L79.3709 29.0284L78.0195 29.1714V23.6905C78.0195 18.4956 78.0678 18.162 78.9848 18.162C79.5157 18.162 79.95 17.9237 79.95 17.6854C79.95 17.3994 79.5157 17.2088 78.9848 17.2088C78.2126 17.2088 78.0195 16.8752 78.0195 15.636C78.0195 14.7305 77.8747 13.9203 77.7299 13.7296C77.5369 13.5867 76.4268 14.4445 75.2203 15.636C74.0137 16.8752 73.2897 17.9713 73.5793 18.0667C73.9654 18.162 74.1585 19.8301 74.1585 23.1186C74.1585 30.0292 74.2067 30.0769 81.0118 30.0769C86.1759 30.0769 86.3207 30.0292 85.5968 29.219C84.3902 27.8846 84.4385 21.0216 85.6451 19.9254C86.7551 18.9245 87.9617 18.8769 88.3478 19.8777C88.4926 20.3067 88.6374 22.3084 88.6374 24.3577C88.6374 27.0743 88.4443 28.3135 87.9134 28.8377C87.5273 29.219 87.1895 29.648 87.1895 29.7909C87.1895 29.9339 88.5891 30.0769 90.3266 30.0769C93.6567 30.0769 93.8497 29.9339 92.7397 28.4565C92.2571 27.7892 92.0158 26.3118 92.0158 23.8335C92.0158 20.402 91.9192 20.0684 90.7609 19.1628C89.2648 18.019 86.6103 17.8284 85.7416 18.8769C84.7281 20.116 84.535 19.6871 84.6798 16.4462C84.7763 14.7305 84.6798 13.1101 84.4385 12.9194C84.2454 12.7288 83.2802 12.9671 82.3632 13.4437Z" fill="#292929"/>
<path d="M114.698 14.8734C113.781 15.3977 112.188 16.7321 111.223 17.8283C109.92 19.2581 109.389 19.5917 109.389 18.9721C109.389 18.5432 109.196 18.1619 108.906 18.1619C108.568 18.1619 106.445 19.0198 104.659 19.8777C104.611 19.8777 104.852 20.5449 105.286 21.3075C106.203 23.0709 106.203 26.5977 105.286 28.3611C104.9 29.076 104.562 29.7909 104.562 29.8862C104.562 29.9815 107.507 30.0292 111.126 30.0292C117.4 30.0292 117.738 29.9815 118.848 28.8853C121.02 26.7407 120.248 25.2632 115.422 22.2607C112.526 20.4972 112.236 19.3534 114.698 19.3534C116.194 19.3534 116.435 19.5441 116.87 20.8785C117.4 22.7849 117.931 22.8802 118.559 21.2121C119.283 19.4487 119.186 19.2581 117.545 18.6862C113.877 17.447 110.837 18.8292 110.837 21.7364C110.837 23.6428 111.609 24.453 114.794 26.0734C116.435 26.8836 117.111 27.5032 117.014 28.0751C116.676 29.7909 113.057 29.3143 112.188 27.4556C111.464 25.8351 110.837 25.9781 110.837 27.7415C110.837 28.6947 110.644 29.1236 110.258 29.0283C109.244 28.6947 109.147 21.6887 110.113 20.2113C111.319 18.4002 113.732 17.2087 116.194 17.2087C119.186 17.2087 120.296 16.1126 118.752 14.6351C117.738 13.6343 116.725 13.6819 114.698 14.8734Z" fill="#292929"/>
<path d="M50.2183 19.2581C48.6739 20.5925 48.9152 21.9747 50.6527 21.9747C52.004 21.9747 52.921 21.1645 52.921 19.973C52.921 18.9245 54.1759 18.8291 54.562 19.8777C55.1411 21.4028 54.8515 22.4513 53.8863 22.4513C52.004 22.4513 49.2048 24.2623 48.6256 25.7874C48.0465 27.5032 48.5774 29.3143 49.7839 29.7909C50.9905 30.2198 52.8728 30.1245 53.9345 29.6002C54.755 29.1236 54.8515 29.2666 54.8515 30.5058C54.8515 33.6513 56.8786 36.5585 59.4365 37.0351C62.7667 37.6547 66.3864 34.6521 64.2145 33.0794C63.3941 32.5075 63.201 32.5551 62.4771 33.4606C61.9944 34.0326 61.6083 34.7475 61.6083 35.0811C61.6083 35.9866 59.7261 36.5109 59.0021 35.8436C58.6643 35.4624 58.423 32.7934 58.3265 28.504C58.2782 24.7866 58.0852 21.2598 57.9886 20.6879C57.4095 18.2096 52.4867 17.3517 50.2183 19.2581ZM54.3689 28.3611C53.5967 29.1236 52.2453 28.0751 52.0523 26.5977C51.9558 25.6921 52.2936 24.9296 53.2589 24.024L54.6102 22.6896L54.755 25.2632C54.8515 26.693 54.6585 28.0751 54.3689 28.3611Z" fill="#292929"/>
<path d="M61.2226 19.1628C59.3886 20.0207 59.2439 20.2114 59.9195 20.8309C60.4022 21.3075 60.6435 22.4514 60.6435 24.1671C60.6435 26.979 61.5605 29.3143 62.8153 29.7909C64.2632 30.3152 66.5798 30.0769 67.4968 29.2667C68.3173 28.5518 68.3656 28.5518 68.3656 29.2667C68.3656 29.9339 68.8482 30.0769 70.7304 30.0769C73.3366 30.0769 74.1088 29.6003 72.9505 28.6471C72.3714 28.1705 72.2266 26.8837 72.2266 23.0709C72.2266 18.4956 72.1301 18.0667 71.4061 18.305C66.5798 19.8777 66.3868 20.0207 67.6416 21.0216C68.7999 21.9748 68.6551 27.3126 67.4486 28.3611C66.9177 28.8377 66.0972 29.1237 65.6146 29.0284C64.8424 28.8854 64.7458 28.2658 64.601 23.4999C64.4563 17.5901 64.5528 17.6854 61.2226 19.1628Z" fill="#292929"/>
<path d="M95.9243 18.8292C94.2834 19.7348 93.5112 21.4028 93.4629 23.9765C93.4629 28.1229 95.2969 30.0769 99.2062 30.0769C100.702 30.0769 101.571 29.7433 102.729 28.6948C104.226 27.3603 104.322 27.122 104.322 24.1194C104.322 21.1169 104.226 20.8786 102.729 19.5441C101.523 18.4479 100.702 18.162 99.1097 18.162C97.9996 18.2096 96.5517 18.4956 95.9243 18.8292ZM100.654 20.5926C101.233 22.2607 101.281 25.7875 100.751 27.6939C100.509 28.5518 100.027 28.9331 99.1097 29.0284C97.517 29.219 96.8413 27.8369 96.8413 24.4054C96.8413 21.0692 97.6618 19.1152 99.0131 19.1152C99.8336 19.1152 100.268 19.4965 100.654 20.5926Z" fill="#292929"/>
</svg>
