<svg width="54" height="40" viewBox="0 0 54 40" fill="none" xmlns="http://www.w3.org/2000/svg">
<path d="M17.4816 1.48857C17.332 1.88256 16.933 2.1288 16.6338 1.98105C16.2847 1.88256 15.1875 2.17805 14.1402 2.71978C12.8435 3.36001 11.6965 3.60625 10.4996 3.40925C9.15302 3.21226 8.80392 3.31076 8.80392 3.90174C8.80392 5.67468 10.0507 7.64461 12.9931 10.4025C17.8307 14.9826 18.6286 17.7405 17.0327 24.192C16.6338 25.8172 16.3345 28.9199 16.2847 31.0868C16.2847 36.4056 16.1351 36.5041 8.45482 36.9473C2.12111 37.2921 -0.771445 37.8338 0.176117 38.3755C3.0188 40.0992 52.0925 40.0007 53.838 38.277C54.3368 37.7846 51.8432 37.3413 47.5542 37.1443C44.7614 36.9966 44.7115 36.9966 44.9609 35.7161C45.2601 34.4357 43.5146 24.8815 42.7665 23.5518C42.4673 23.0593 42.2678 23.3056 42.0185 24.5368C41.8688 25.4725 40.9213 27.5409 39.9737 29.0676L38.2282 31.924L39.475 33.4015C40.1732 34.1894 40.7218 35.0267 40.7218 35.2237C40.7218 36.0609 38.2781 36.7996 35.7845 36.6519L33.1912 36.5041L36.6822 31.9733C44.4622 21.8281 43.365 17.9375 30.1989 9.41755C26.5084 7.00438 23.0672 4.34497 21.97 3.06452C20.025 0.749847 18.0302 0.0603707 17.4816 1.48857ZM28.7526 9.95928C32.3434 12.3232 34.1886 13.8499 34.7372 14.9334C35.5351 16.6078 36.5824 17.1988 36.0339 15.6721C35.7845 14.9826 35.8842 15.0319 36.4827 15.8198C39.7244 19.9074 37.4303 26.0635 32.1937 27.4424C30.5978 27.8364 30.6477 27.8364 32.6925 27.6887C36.5326 27.2947 39.1758 23.5518 38.5274 19.4149C38.328 18.1837 38.3778 17.5928 38.6771 17.7898C39.5747 18.2822 40.3727 21.8281 40.0236 23.6011C39.6246 25.8172 37.2807 28.9199 35.0364 30.2988C33.3907 31.333 33.1912 31.333 31.7948 30.5943C30.2986 29.8556 29.2513 28.5259 29.2513 27.3932C29.2513 27.0977 29.5007 26.9992 29.7999 27.1469C30.0991 27.3439 30.0493 27.0484 29.6503 26.4575C28.8523 25.2262 28.0544 25.374 27.8549 26.8022C27.7053 27.6887 27.4559 27.8364 26.3588 27.5902C24.314 27.0977 24.2143 26.9499 24.5634 25.1278C24.7629 24.0443 24.6631 23.4533 24.314 23.4533C24.0148 23.4533 23.7654 23.6503 23.7654 23.8965C23.7654 24.1428 23.0173 24.783 22.1695 25.374C21.2718 25.9157 20.7731 26.4082 21.0225 26.4082C21.3217 26.4082 21.8204 26.162 22.1695 25.8172C22.6184 25.374 22.768 25.374 22.768 25.8172C22.768 26.162 21.97 27.2947 20.9227 28.3781C18.7783 30.7913 18.2795 30.3973 18.3294 26.4082C18.3294 24.389 18.4292 23.9458 18.7783 24.7338C19.5263 26.6052 20.1747 26.4575 19.5762 24.5368C18.9279 22.6653 18.878 12.8649 19.4765 12.2739C19.6261 12.1262 19.7757 11.5352 19.7757 11.0427C19.7757 10.2548 19.5263 10.1563 18.0801 10.4025C16.9829 10.6488 15.8857 10.4518 14.8883 9.95928C12.644 8.82657 12.5942 8.38333 14.6888 8.53108C16.2348 8.62957 16.3345 8.58033 15.2872 8.23559C11.2975 6.95513 9.05328 4.73896 11.6965 4.73896C12.4446 4.73896 13.4919 4.39422 13.9906 4.00023C14.5392 3.60625 15.6862 3.26151 16.5839 3.26151C17.5813 3.26151 18.2795 2.96602 18.479 2.47354C18.7284 1.88256 19.3268 2.27654 21.1721 4.14798C22.4688 5.47768 25.9099 8.08784 28.7526 9.95928ZM18.9279 12.2247C18.6286 12.5694 18.3294 13.1604 18.1798 13.5544C18.0302 14.0469 17.8806 14.0469 17.332 13.4067C16.7834 12.7172 16.8333 12.5694 17.8307 12.1755C19.4266 11.5352 19.4765 11.5352 18.9279 12.2247ZM26.6081 28.9199C28.4534 29.4124 28.8025 29.7078 29.2513 31.2838C29.9495 33.7462 29.8498 35.2729 29.0518 35.2729C28.7027 35.2729 28.1043 35.6176 27.7552 36.0116C27.0071 36.8981 25.2616 36.9966 25.2616 36.1101C25.2616 35.8146 25.8102 34.3372 26.5084 32.909C27.6055 30.5451 27.6554 30.2988 26.8575 30.0526C26.4086 29.9048 25.5109 29.5601 24.9125 29.3631C23.4662 28.7721 22.2693 30.5943 22.2693 33.4015C22.2693 35.0267 22.0199 35.6669 21.222 36.1594C19.6759 37.1443 19.4765 36.5534 20.424 33.6477C21.4713 30.3481 23.1171 27.7379 23.915 28.0826C24.2641 28.2304 25.4611 28.5751 26.6081 28.9199ZM42.7167 32.1703C43.1655 35.0759 42.7665 35.5684 41.6694 33.4507C40.7218 31.5793 40.8215 29.6586 41.8688 30.0033C42.2179 30.1018 42.567 31.0868 42.7167 32.1703ZM33.7398 32.318C33.7398 32.6135 33.3907 33.4015 32.9418 34.0417C32.493 34.7312 32.2436 35.8146 32.3434 36.5041C32.5927 37.5876 32.4431 37.7353 31.1963 37.7353C29.5007 37.7353 29.4508 37.5383 30.7475 35.9131C31.296 35.2237 31.7449 33.9924 31.7449 33.2537C31.7449 32.1703 31.9943 31.8255 32.7423 31.8255C33.2909 31.8255 33.7398 32.0718 33.7398 32.318ZM43.2154 36.7996C43.2154 37.0458 42.8663 37.2428 42.4673 37.2428C41.7192 37.2428 41.4699 36.6519 42.0185 36.1101C42.4174 35.7161 43.2154 36.1594 43.2154 36.7996ZM18.479 36.9966C18.6785 37.4891 18.4292 37.7353 17.7808 37.7353C16.7834 37.7353 16.4842 37.1936 17.1325 36.6026C17.6312 36.0609 18.1299 36.2086 18.479 36.9966Z" fill="#F2F2F2"/>
</svg>
