<svg width="22" height="22" viewBox="0 0 22 22" fill="none" xmlns="http://www.w3.org/2000/svg">
<path d="M20.3023 1H4.48837C3.56352 1.00085 2.67685 1.2993 2.02288 1.82988C1.36891 2.36046 1.00105 3.07984 1 3.83019V20.434C1.00001 20.5841 1.07352 20.7281 1.20435 20.8342C1.33519 20.9404 1.51264 21 1.69767 21H18.4419C18.6269 21 18.8044 20.9404 18.9352 20.8342C19.066 20.7281 19.1395 20.5841 19.1395 20.434C19.1395 20.2838 19.066 20.1399 18.9352 20.0337C18.8044 19.9276 18.6269 19.8679 18.4419 19.8679H2.39535V19.6792C2.39599 19.229 2.61671 18.7974 3.00909 18.4791C3.40147 18.1607 3.93347 17.9817 4.48837 17.9811H20.3023C20.4874 17.9811 20.6648 17.9215 20.7956 17.8153C20.9265 17.7092 21 17.5652 21 17.4151V1.56604C21 1.41592 20.9265 1.27195 20.7956 1.1658C20.6648 1.05965 20.4874 1.00001 20.3023 1ZM9.83755 2.13208H15.8841V9.49075L13.2785 7.90559C13.1577 7.83214 13.0108 7.79244 12.8598 7.79246C12.7089 7.79248 12.562 7.8322 12.4412 7.90569L9.83755 9.49039V2.13208ZM19.6047 16.8491H4.48837C3.73319 16.8484 2.99836 17.0476 2.39535 17.4165V3.83019C2.39599 3.37998 2.61671 2.94836 3.00909 2.63002C3.40147 2.31167 3.93347 2.1326 4.48837 2.13208H8.4422V10.6226C8.4422 10.7278 8.47828 10.8308 8.5464 10.9202C8.61452 11.0097 8.71199 11.0819 8.82789 11.129C8.94379 11.176 9.07354 11.1959 9.20259 11.1864C9.33164 11.177 9.4549 11.1385 9.55855 11.0755L12.86 9.06604L16.1632 11.0755C16.2668 11.1386 16.3901 11.177 16.5191 11.1864C16.6482 11.1958 16.7779 11.1759 16.8938 11.1289C17.0096 11.0819 17.1071 11.0096 17.1752 10.9202C17.2433 10.8308 17.2794 10.7278 17.2794 10.6226V2.13208H19.6047V16.8491Z" fill="#F2F2F2" stroke="white"/>
</svg>
