<svg width="32" height="32" viewBox="0 0 32 32" fill="none" xmlns="http://www.w3.org/2000/svg">
<path d="M4 6.66683C4 5.25234 4.5619 3.89579 5.5621 2.89559C6.56229 1.8954 7.91885 1.3335 9.33333 1.3335H28V28.0002H9.33333C7.91885 28.0002 6.56229 27.4383 5.5621 26.4381C4.5619 25.4379 4 24.0813 4 22.6668V6.66683ZM6.66667 18.0468C7.47755 17.5791 8.39725 17.3331 9.33333 17.3335H25.3333V4.00016H9.33333C8.62609 4.00016 7.94781 4.28111 7.44772 4.78121C6.94762 5.28131 6.66667 5.95959 6.66667 6.66683V18.0468ZM25.3333 20.0002H9.33333C8.62609 20.0002 7.94781 20.2811 7.44772 20.7812C6.94762 21.2813 6.66667 21.9596 6.66667 22.6668C6.66667 23.3741 6.94762 24.0523 7.44772 24.5524C7.94781 25.0525 8.62609 25.3335 9.33333 25.3335H25.3333V20.0002ZM13.3333 6.66683H22.6667V9.3335H13.3333V6.66683Z" fill="#E12F3B"/>
</svg>
