<svg width="24" height="24" viewBox="0 0 24 24" fill="none" xmlns="http://www.w3.org/2000/svg">
<path d="M3 5C3 3.93913 3.42143 2.92172 4.17157 2.17157C4.92172 1.42143 5.93913 1 7 1H21V21H7C5.93913 21 4.92172 20.5786 4.17157 19.8284C3.42143 19.0783 3 18.0609 3 17V5ZM5 13.535C5.60816 13.1842 6.29794 12.9997 7 13H19V3H7C6.46957 3 5.96086 3.21071 5.58579 3.58579C5.21071 3.96086 5 4.46957 5 5V13.535ZM19 15H7C6.46957 15 5.96086 15.2107 5.58579 15.5858C5.21071 15.9609 5 16.4696 5 17C5 17.5304 5.21071 18.0391 5.58579 18.4142C5.96086 18.7893 6.46957 19 7 19H19V15ZM10 5H17V7H10V5Z" fill="white"/>
</svg>
