<svg width="28" height="24" viewBox="0 0 28 24" fill="none" xmlns="http://www.w3.org/2000/svg">
<path d="M18.1506 12.0061C18.1506 14.3988 16.217 16.3323 13.8243 16.3323C11.4315 16.3323 9.49805 14.3988 9.49805 12.0061C9.49805 9.61332 11.4315 7.67984 13.8243 7.67984C16.217 7.67984 18.1506 9.61332 18.1506 12.0061Z" stroke="#E12F3B" stroke-width="3" stroke-linecap="round" stroke-linejoin="round"/>
<path d="M13.8248 22C18.0906 22 22.0665 19.4864 24.8338 15.136C25.9214 13.432 25.9214 10.568 24.8338 8.86404C22.0665 4.51359 18.0906 2 13.8248 2C9.5589 2 5.58308 4.51359 2.81571 8.86404C1.7281 10.568 1.7281 13.432 2.81571 15.136C5.58308 19.4864 9.5589 22 13.8248 22Z" stroke="#E12F3B" stroke-width="3" stroke-linecap="round" stroke-linejoin="round"/>
</svg>
