<svg width="22" height="23" viewBox="0 0 22 23" fill="none" xmlns="http://www.w3.org/2000/svg">
<path d="M9.359 0.99597C9.82452 0.623399 10.403 0.42041 10.9992 0.42041C11.5955 0.42041 12.174 0.623399 12.6395 0.99597L20.5145 7.29597C21.137 7.79397 21.5 8.54847 21.5 9.34647V19.875C21.5 20.5712 21.2234 21.2388 20.7312 21.7311C20.2389 22.2234 19.5712 22.5 18.875 22.5H13.625C13.3266 22.5 13.0405 22.3814 12.8295 22.1705C12.6185 21.9595 12.5 21.6733 12.5 21.375V13.5H9.5V21.375C9.5 21.6733 9.38147 21.9595 9.1705 22.1705C8.95952 22.3814 8.67337 22.5 8.375 22.5H3.125C2.42881 22.5 1.76113 22.2234 1.26884 21.7311C0.776562 21.2388 0.5 20.5712 0.5 19.875V9.34497C0.5 8.54847 0.863 7.79397 1.4855 7.29597L9.359 0.99597ZM11.234 2.75247C11.1676 2.69941 11.085 2.6705 11 2.6705C10.915 2.6705 10.8324 2.69941 10.766 2.75247L2.891 9.05247C2.84688 9.0877 2.81129 9.13244 2.78687 9.18334C2.76246 9.23425 2.74985 9.29001 2.75 9.34647V19.875C2.75 20.082 2.918 20.25 3.125 20.25H7.25V12.375C7.25 12.0766 7.36853 11.7905 7.5795 11.5795C7.79048 11.3685 8.07663 11.25 8.375 11.25H13.625C13.9234 11.25 14.2095 11.3685 14.4205 11.5795C14.6315 11.7905 14.75 12.0766 14.75 12.375V20.25H18.875C18.9745 20.25 19.0698 20.2105 19.1402 20.1401C19.2105 20.0698 19.25 19.9744 19.25 19.875V9.34497C19.2499 9.28876 19.2372 9.2333 19.2128 9.18267C19.1884 9.13204 19.1529 9.08754 19.109 9.05247L11.234 2.75247Z" fill="#E12F3B"/>
</svg>
