<svg width="32" height="32" viewBox="0 0 32 32" fill="none" xmlns="http://www.w3.org/2000/svg">
<path d="M5.6002 6.3999C4.96368 6.3999 4.35323 6.65276 3.90314 7.10285C3.45305 7.55293 3.2002 8.16338 3.2002 8.7999V19.9999C3.2002 20.6364 3.45305 21.2469 3.90314 21.697C4.35323 22.147 4.96368 22.3999 5.6002 22.3999H23.2002C23.8367 22.3999 24.4472 22.147 24.8973 21.697C25.3473 21.2469 25.6002 20.6364 25.6002 19.9999V8.7999C25.6002 8.16338 25.3473 7.55293 24.8973 7.10285C24.4472 6.65276 23.8367 6.3999 23.2002 6.3999H5.6002ZM9.6002 7.9999V9.5999C9.6002 10.4486 9.26305 11.2625 8.66294 11.8626C8.06282 12.4628 7.24889 12.7999 6.4002 12.7999H4.8002V11.1999H6.4002C6.82454 11.1999 7.23151 11.0313 7.53157 10.7313C7.83162 10.4312 8.0002 10.0242 8.0002 9.5999V7.9999H9.6002ZM14.4002 17.1999C13.6576 17.1999 12.9454 16.9049 12.4203 16.3798C11.8952 15.8547 11.6002 15.1425 11.6002 14.3999C11.6002 13.6573 11.8952 12.9451 12.4203 12.42C12.9454 11.8949 13.6576 11.5999 14.4002 11.5999C15.1428 11.5999 15.855 11.8949 16.3801 12.42C16.9052 12.9451 17.2002 13.6573 17.2002 14.3999C17.2002 15.1425 16.9052 15.8547 16.3801 16.3798C15.855 16.9049 15.1428 17.1999 14.4002 17.1999ZM4.8002 17.5999V15.9999H6.4002C7.24889 15.9999 8.06282 16.337 8.66294 16.9372C9.26305 17.5373 9.6002 18.3512 9.6002 19.1999V20.7999H8.0002V19.1999C8.0002 18.7756 7.83162 18.3686 7.53157 18.0685C7.23151 17.7685 6.82454 17.5999 6.4002 17.5999H4.8002ZM22.4002 17.5999C21.9758 17.5999 21.5689 17.7685 21.2688 18.0685C20.9688 18.3686 20.8002 18.7756 20.8002 19.1999V20.7999H19.2002V19.1999C19.2002 18.3512 19.5373 17.5373 20.1375 16.9372C20.7376 16.337 21.5515 15.9999 22.4002 15.9999H24.0002V17.5999H22.4002ZM22.4002 11.1999H24.0002V12.7999H22.4002C21.5515 12.7999 20.7376 12.4628 20.1375 11.8626C19.5373 11.2625 19.2002 10.4486 19.2002 9.5999V7.9999H20.8002V9.5999C20.8002 10.0242 20.9688 10.4312 21.2688 10.7313C21.5689 11.0313 21.9758 11.1999 22.4002 11.1999ZM27.2002 19.9999C27.2002 21.0608 26.7788 22.0782 26.0286 22.8283C25.2785 23.5785 24.2611 23.9999 23.2002 23.9999H6.5362C6.7017 24.468 7.00833 24.8733 7.41381 25.1599C7.81929 25.4464 8.30367 25.6002 8.8002 25.5999H23.2002C24.6854 25.5999 26.1098 25.0099 27.16 23.9597C28.2102 22.9095 28.8002 21.4851 28.8002 19.9999V11.9999C28.8005 11.5034 28.6467 11.019 28.3602 10.6135C28.0736 10.208 27.6683 9.90141 27.2002 9.7359V19.9999Z" fill="#EBFF04"/>
</svg>
