<svg width="22" height="22" viewBox="0 0 22 22" fill="none" xmlns="http://www.w3.org/2000/svg">
<path d="M8.08213 4.78633C7.11507 4.82394 6.24179 5.16894 5.77462 5.63622C5.55768 5.85322 5.2059 5.85322 4.98896 5.63628C4.77196 5.41939 4.7719 5.06761 4.98885 4.85061C5.70962 4.12972 6.88262 3.72105 8.0389 3.67605C9.20274 3.63077 10.4733 3.94944 11.3632 4.83944C11.5801 5.05639 11.5801 5.40816 11.3631 5.62511C11.1461 5.84205 10.7944 5.842 10.5774 5.62505C9.97129 5.01877 9.04157 4.749 8.08213 4.78633Z" fill="#333333" stroke="#F2F2F2"/>
<path fill-rule="evenodd" clip-rule="evenodd" d="M12.8801 13.742C11.6226 14.8042 9.99717 15.4445 8.22223 15.4445C4.2335 15.4445 1 12.211 1 8.22223C1 4.2335 4.2335 1 8.22223 1C12.211 1 15.4445 4.2335 15.4445 8.22223C15.4445 9.99717 14.8042 11.6226 13.742 12.8801L14.969 12.6667L20.6821 18.3798C21.106 18.8037 21.106 19.4908 20.6821 19.9147L19.9147 20.6821C19.4908 21.106 18.8037 21.106 18.3798 20.6821L12.6667 14.969L12.8801 13.742ZM14.3333 8.22223C14.3333 11.5973 11.5973 14.3333 8.22223 14.3333C4.84717 14.3333 2.11111 11.5973 2.11111 8.22223C2.11111 4.84717 4.84717 2.11111 8.22223 2.11111C11.5973 2.11111 14.3333 4.84717 14.3333 8.22223ZM18.3604 17.6295L14.5911 13.8602L13.9685 13.9685L13.8602 14.5911L17.6406 18.3715L18.3604 17.6295ZM18.4263 19.1573L19.1472 19.8782L19.8782 19.1472L19.1462 18.4152L18.4263 19.1573Z" fill="white" stroke="#F2F2F2"/>
</svg>
