<svg width="20" height="22" viewBox="0 0 20 22" fill="none" xmlns="http://www.w3.org/2000/svg">
<path d="M18.829 10.1171C18.829 15.0095 15.2772 19.5918 10.4247 20.9325C10.0946 21.0225 9.7344 21.0225 9.40424 20.9325C4.55177 19.5918 1 15.0095 1 10.1171V5.72482C1 4.90441 1.62032 3.97396 2.39071 3.6638L7.96352 1.38269C9.21414 0.872436 10.6248 0.872436 11.8755 1.38269L17.4483 3.6638C18.2086 3.97396 18.839 4.90441 18.839 5.72482L18.829 10.1171Z" stroke="#8A0BD9" stroke-width="2" stroke-linecap="round" stroke-linejoin="round"/>
<path d="M9.91409 11.4978C11.0192 11.4978 11.9151 10.6019 11.9151 9.49676C11.9151 8.39164 11.0192 7.49576 9.91409 7.49576C8.80893 7.49576 7.91309 8.39164 7.91309 9.49676C7.91309 10.6019 8.80893 11.4978 9.91409 11.4978Z" stroke="#8A0BD9" stroke-width="2" stroke-miterlimit="10" stroke-linecap="round" stroke-linejoin="round"/>
<path d="M9.91406 11.4978V14.4993" stroke="#8A0BD9" stroke-width="2" stroke-miterlimit="10" stroke-linecap="round" stroke-linejoin="round"/>
</svg>
