<svg width="28" height="24" viewBox="0 0 28 24" fill="none" xmlns="http://www.w3.org/2000/svg">
<path d="M14.6273 22H7.04854C3.25914 22 2 19.5059 2 17V6.99999C2 3.24703 3.25914 2 7.04854 2H14.6273C18.4167 2 19.6759 3.24703 19.6759 6.99999V17C19.6759 20.753 18.4047 22 14.6273 22Z" stroke="#04D0D0" stroke-width="3" stroke-linecap="round" stroke-linejoin="round"/>
<path d="M23.0095 18.0568L19.6758 15.7409V8.2468L23.0095 5.93089C24.6404 4.80263 25.9835 5.49146 25.9835 7.47483V16.5247C25.9835 18.5081 24.6404 19.1969 23.0095 18.0568Z" stroke="#04D0D0" stroke-width="3" stroke-linecap="round" stroke-linejoin="round"/>
<path d="M13.3925 10.8122C14.3859 10.8122 15.1913 10.0146 15.1913 9.03077C15.1913 8.04689 14.3859 7.2493 13.3925 7.2493C12.3991 7.2493 11.5938 8.04689 11.5938 9.03077C11.5938 10.0146 12.3991 10.8122 13.3925 10.8122Z" stroke="#04D0D0" stroke-width="3" stroke-linecap="round" stroke-linejoin="round"/>
</svg>
